<?xml version="1.0" standalone="no"?>
<!DOCTYPE svg PUBLIC "-//W3C//DTD SVG 20010904//EN"
 "http://www.w3.org/TR/2001/REC-SVG-20010904/DTD/svg10.dtd">
<svg version="1.0" xmlns="http://www.w3.org/2000/svg"
 width="512.000000pt" height="512.000000pt" viewBox="0 0 512.000000 512.000000"
 preserveAspectRatio="xMidYMid meet">
<metadata>
Created by potrace 1.14, written by Peter Selinger 2001-2017
</metadata>
<g transform="translate(0.000000,512.000000) scale(0.100000,-0.100000)"
fill="#000000" stroke="none">
<path d="M4477 4984 c-1 -1 -47 -4 -102 -8 -55 -3 -113 -8 -130 -11 -16 -2
-64 -9 -105 -14 -73 -10 -95 -14 -153 -27 -16 -3 -38 -7 -50 -9 -12 -2 -53
-11 -92 -20 -38 -9 -77 -18 -85 -20 -126 -31 -186 -47 -215 -59 -19 -8 -35
-13 -35 -11 0 2 -57 -17 -127 -42 -71 -24 -141 -50 -158 -55 -16 -6 -34 -14
-40 -18 -5 -3 -32 -15 -60 -25 -109 -40 -375 -170 -528 -259 -516 -297 -922
-645 -1327 -1135 -66 -80 -208 -284 -281 -405 -69 -113 -204 -371 -241 -461
-10 -22 -31 -74 -49 -115 -32 -77 -127 -349 -135 -385 -2 -11 -11 -44 -19 -72
-27 -96 -44 -158 -50 -188 -3 -16 -8 -40 -10 -52 -8 -38 -12 -56 -20 -98 -5
-22 -9 -42 -10 -45 0 -3 -5 -30 -9 -60 -4 -30 -10 -64 -12 -75 -3 -18 -16
-123 -29 -230 -23 -201 -24 -619 -1 -780 2 -11 6 -45 10 -76 5 -31 11 -61 15
-68 6 -9 325 -11 1362 -11 1376 1 1417 2 1457 14 22 7 22 10 23 199 1 205 2
224 13 332 52 511 257 879 655 1174 92 68 215 137 306 171 33 12 69 26 80 31
52 20 187 44 298 53 27 3 51 7 54 9 2 3 9 23 14 44 10 44 6 2684 -4 2725 -19
72 -21 74 -84 77 -32 1 -73 3 -91 5 -18 1 -34 1 -35 0z"/>
</g>
</svg>
